ffmpeg started on 2016-12-01 at 19:05:31
Report written to "Output/x264/results/ffmpeg/old_town_cross_2160p50slow9000k.log"
Command line:
Tools/ffmpeg/ffmpeg -benchmark -y -i Input/y4m/old_town_cross_2160p50.y4m -c:v libx264 -preset slow -b:v 9000k -an Output/x264/encoded/old_town_cross_2160p50slow9000k.mkv
ffmpeg version N-82227-gdb23fde Copyright (c) 2000-2016 the FFmpeg developers
  built with gcc 5.4.0 (Ubuntu 5.4.0-6ubuntu1~16.04.2) 20160609
  configuration: --prefix=/home/jaroslav/ffmpeg_build --pkg-config-flags=--static --extra-cflags=-I/home/jaroslav/ffmpeg_build/include --extra-ldflags=-L/home/jaroslav/ffmpeg_build/lib --bindir=/home/jaroslav/bin --enable-gpl --enable-libass --enable-libfdk-aac --enable-libfreetype --enable-libmp3lame --enable-libopus --enable-libtheora --enable-libvorbis --enable-libvpx --enable-libx264 --enable-libx265 --enable-nvenc --enable-libmfx --enable-libxvid --enable-libgsm --enable-libopencore-amrnb --enable-version3 --enable-nonfree
  libavutil      55. 35.100 / 55. 35.100
  libavcodec     57. 66.101 / 57. 66.101
  libavformat    57. 57.100 / 57. 57.100
  libavdevice    57.  2.100 / 57.  2.100
  libavfilter     6. 66.100 /  6. 66.100
  libswscale      4.  3.100 /  4.  3.100
  libswresample   2.  4.100 /  2.  4.100
  libpostproc    54.  2.100 / 54.  2.100
Input #0, yuv4mpegpipe, from 'Input/y4m/old_town_cross_2160p50.y4m':
  Duration: 00:00:10.00, start: 0.000000, bitrate: 4976642 kb/s
    Stream #0:0: Video: rawvideo (I420 / 0x30323449), yuv420p(progressive), 3840x2160, SAR 1:1 DAR 16:9, 50 fps, 50 tbr, 50 tbn, 50 tbc
[libx264 @ 0x3884120] using SAR=1/1
[libx264 @ 0x3884120] using cpu capabilities: MMX2 SSE2Fast SSSE3 SSE4.2 AVX FMA3 AVX2 LZCNT BMI2
[libx264 @ 0x3884120] profile High, level 5.2
[libx264 @ 0x3884120] 264 - core 148 - H.264/MPEG-4 AVC codec - Copyleft 2003-2016 - http://www.videolan.org/x264.html - options: cabac=1 ref=5 deblock=1:0:0 analyse=0x3:0x113 me=hex subme=8 psy=1 psy_rd=1.00:0.00 mixed_ref=1 me_range=16 chroma_me=1 trellis=2 8x8dct=1 cqm=0 deadzone=21,11 fast_pskip=1 chroma_qp_offset=-2 threads=6 lookahead_threads=1 sliced_threads=0 nr=0 decimate=1 interlaced=0 bluray_compat=0 constrained_intra=0 bframes=3 b_pyramid=2 b_adapt=1 b_bias=0 direct=3 weightb=1 open_gop=0 weightp=2 keyint=250 keyint_min=25 scenecut=40 intra_refresh=0 rc_lookahead=50 rc=abr mbtree=1 bitrate=9000 ratetol=1.0 qcomp=0.60 qpmin=0 qpmax=69 qpstep=4 ip_ratio=1.40 aq=1:1.00
Output #0, matroska, to 'Output/x264/encoded/old_town_cross_2160p50slow9000k.mkv':
  Metadata:
    encoder         : Lavf57.57.100
    Stream #0:0: Video: h264 (libx264) (H264 / 0x34363248), yuv420p, 3840x2160 [SAR 1:1 DAR 16:9], q=-1--1, 9000 kb/s, 50 fps, 1k tbn, 50 tbc
    Metadata:
      encoder         : Lavc57.66.101 libx264
    Side data:
      cpb: bitrate max/min/avg: 0/0/9000000 buffer size: 0 vbv_delay: -1
Stream mapping:
  Stream #0:0 -> #0:0 (rawvideo (native) -> h264 (libx264))
Press [q] to stop, [?] for help
frame=   57 fps= 18 q=0.0 size=       0kB time=00:00:00.00 bitrate=N/A speed=   0x    frame=   62 fps= 15 q=35.0 size=       1kB time=-00:00:00.01 bitrate=N/A speed=N/A    frame=   67 fps= 15 q=37.0 size=       1kB time=00:00:00.08 bitrate=  72.5kbits/s speed=0.0176x    frame=   73 fps= 14 q=41.0 size=       1kB time=00:00:00.20 bitrate=  29.2kbits/s speed=0.0393x    frame=   80 fps= 14 q=40.0 size=       1kB time=00:00:00.34 bitrate=  17.2kbits/s speed=0.0601x    frame=   87 fps= 14 q=39.0 size=       1kB time=00:00:00.48 bitrate=  12.2kbits/s speed=0.0765x    frame=   91 fps= 13 q=38.0 size=       1kB time=00:00:00.56 bitrate=  10.5kbits/s speed=0.0819x    frame=   97 fps= 13 q=36.0 size=       1kB time=00:00:00.68 bitrate=   8.6kbits/s speed=0.0915x    frame=  103 fps= 13 q=36.0 size=       1kB time=00:00:00.80 bitrate=   7.3kbits/s speed=0.0989x    frame=  107 fps= 12 q=36.0 size=       1kB time=00:00:00.88 bitrate=   6.7kbits/s speed=0.101x    frame=  112 fps= 12 q=36.0 size=       1kB time=00:00:00.98 bitrate=   6.0kbits/s speed=0.106x    frame=  115 fps= 12 q=35.0 size=       1kB time=00:00:01.04 bitrate=   5.6kbits/s speed=0.106x    frame=  121 fps= 12 q=35.0 size=       1kB time=00:00:01.16 bitrate=   5.1kbits/s speed=0.111x    frame=  124 fps= 11 q=35.0 size=       1kB time=00:00:01.22 bitrate=   4.8kbits/s speed=0.111x    frame=  128 fps= 11 q=35.0 size=       1kB time=00:00:01.30 bitrate=   4.5kbits/s speed=0.113x    frame=  131 fps= 11 q=35.0 size=       1kB time=00:00:01.36 bitrate=   4.3kbits/s speed=0.113x    frame=  135 fps= 11 q=35.0 size=       1kB time=00:00:01.44 bitrate=   4.1kbits/s speed=0.114x    frame=  139 fps= 11 q=35.0 size=       1kB time=00:00:01.52 bitrate=   3.9kbits/s speed=0.115x    frame=  144 fps= 10 q=35.0 size=       1kB time=00:00:01.62 bitrate=   3.6kbits/s speed=0.118x    frame=  148 fps= 10 q=35.0 size=       1kB time=00:00:01.70 bitrate=   3.5kbits/s speed=0.119x    frame=  151 fps= 10 q=35.0 size=       1kB time=00:00:01.76 bitrate=   3.3kbits/s speed=0.118x    frame=  155 fps= 10 q=35.0 size=       1kB time=00:00:01.84 bitrate=   3.2kbits/s speed=0.119x    frame=  159 fps=9.9 q=35.0 size=       1kB time=00:00:01.92 bitrate=   3.1kbits/s speed=0.119x    frame=  163 fps=9.8 q=34.0 size=       1kB time=00:00:02.00 bitrate=   2.9kbits/s speed=0.12x    frame=  167 fps=9.7 q=34.0 size=       1kB time=00:00:02.08 bitrate=   2.8kbits/s speed=0.12x    frame=  171 fps=9.6 q=34.0 size=       1kB time=00:00:02.16 bitrate=   2.7kbits/s speed=0.121x    frame=  175 fps=9.5 q=34.0 size=       1kB time=00:00:02.24 bitrate=   2.6kbits/s speed=0.121x    frame=  181 fps=9.5 q=34.0 size=       1kB time=00:00:02.36 bitrate=   2.5kbits/s speed=0.124x    frame=  183 fps=9.3 q=34.0 size=       1kB time=00:00:02.40 bitrate=   2.4kbits/s speed=0.122x    frame=  189 fps=9.3 q=34.0 size=       1kB time=00:00:02.52 bitrate=   2.3kbits/s speed=0.124x    frame=  191 fps=9.2 q=34.0 size=       1kB time=00:00:02.56 bitrate=   2.3kbits/s speed=0.123x    frame=  195 fps=9.1 q=34.0 size=       1kB time=00:00:02.64 bitrate=   2.2kbits/s speed=0.124x    frame=  199 fps=9.1 q=34.0 size=       1kB time=00:00:02.72 bitrate=   2.2kbits/s speed=0.124x    frame=  204 fps=9.1 q=34.0 size=       1kB time=00:00:02.82 bitrate=   2.1kbits/s speed=0.125x    frame=  207 fps=9.0 q=34.0 size=       1kB time=00:00:02.88 bitrate=   2.0kbits/s speed=0.125x    frame=  212 fps=9.0 q=34.0 size=       1kB time=00:00:02.98 bitrate=   2.0kbits/s speed=0.126x    frame=  215 fps=8.8 q=34.0 size=       1kB time=00:00:03.04 bitrate=   1.9kbits/s speed=0.125x    frame=  220 fps=8.8 q=34.0 size=       1kB time=00:00:03.14 bitrate=   1.9kbits/s speed=0.126x    frame=  223 fps=8.7 q=34.0 size=       1kB time=00:00:03.20 bitrate=   1.8kbits/s speed=0.126x    frame=  227 fps=8.7 q=34.0 size=       1kB time=00:00:03.28 bitrate=   1.8kbits/s speed=0.126x    frame=  231 fps=8.6 q=34.0 size=       1kB time=00:00:03.36 bitrate=   1.7kbits/s speed=0.126x    frame=  236 fps=8.6 q=34.0 size=       1kB time=00:00:03.46 bitrate=   1.7kbits/s speed=0.127x    frame=  239 fps=8.6 q=34.0 size=       1kB time=00:00:03.52 bitrate=   1.7kbits/s speed=0.126x    frame=  245 fps=8.6 q=34.0 size=       1kB time=00:00:03.64 bitrate=   1.6kbits/s speed=0.128x    frame=  247 fps=8.5 q=34.0 size=       1kB time=00:00:03.68 bitrate=   1.6kbits/s speed=0.126x    frame=  253 fps=8.5 q=34.0 size=       1kB time=00:00:03.80 bitrate=   1.5kbits/s speed=0.128x    frame=  255 fps=8.4 q=34.0 size=       1kB time=00:00:03.84 bitrate=   1.5kbits/s speed=0.126x    frame=  261 fps=8.4 q=34.0 size=       1kB time=00:00:03.96 bitrate=   1.5kbits/s speed=0.128x    frame=  263 fps=8.3 q=34.0 size=       1kB time=00:00:04.00 bitrate=   1.5kbits/s speed=0.127x    frame=  267 fps=8.3 q=34.0 size=       1kB time=00:00:04.08 bitrate=   1.4kbits/s speed=0.127x    frame=  271 fps=8.2 q=34.0 size=       1kB time=00:00:04.16 bitrate=   1.4kbits/s speed=0.126x    frame=  272 fps=8.1 q=34.0 size=       1kB time=00:00:04.18 bitrate=   1.4kbits/s speed=0.125x    frame=  273 fps=8.0 q=34.0 size=       1kB time=00:00:04.20 bitrate=   1.4kbits/s speed=0.122x    frame=  275 fps=7.8 q=34.0 size=       1kB time=00:00:04.24 bitrate=   1.4kbits/s speed=0.12x    frame=  279 fps=7.8 q=34.0 size=       1kB time=00:00:04.32 bitrate=   1.4kbits/s speed=0.121x    frame=  282 fps=7.7 q=35.0 size=       1kB time=00:00:04.38 bitrate=   1.3kbits/s speed=0.12x    frame=  285 fps=7.7 q=35.0 size=       1kB time=00:00:04.44 bitrate=   1.3kbits/s speed=0.12x    frame=  288 fps=7.7 q=35.0 size=       1kB time=00:00:04.50 bitrate=   1.3kbits/s speed=0.12x    frame=  292 fps=7.6 q=35.0 size=       1kB time=00:00:04.58 bitrate=   1.3kbits/s speed=0.119x    frame=  295 fps=7.6 q=35.0 size=       1kB time=00:00:04.64 bitrate=   1.3kbits/s speed=0.119x    frame=  299 fps=7.5 q=35.0 size=    5125kB time=00:00:04.72 bitrate=8893.6kbits/s speed=0.119x    frame=  302 fps=7.5 q=35.0 size=    5125kB time=00:00:04.78 bitrate=8782.0kbits/s speed=0.119x    frame=  307 fps=7.5 q=36.0 size=    5125kB time=00:00:04.88 bitrate=8602.1kbits/s speed=0.12x    frame=  311 fps=7.4 q=36.0 size=    5429kB time=00:00:04.96 bitrate=8964.0kbits/s speed=0.119x    frame=  317 fps=7.5 q=36.0 size=    5429kB time=00:00:05.08 bitrate=8752.3kbits/s speed=0.12x    frame=  320 fps=7.4 q=36.0 size=    5429kB time=00:00:05.14 bitrate=8650.1kbits/s speed=0.12x    frame=  325 fps=7.5 q=36.0 size=    5429kB time=00:00:05.24 bitrate=8485.1kbits/s speed=0.12x    frame=  331 fps=7.5 q=36.0 size=    5429kB time=00:00:05.36 bitrate=8295.2kbits/s speed=0.121x    frame=  333 fps=7.5 q=36.0 size=    5429kB time=00:00:05.40 bitrate=8233.7kbits/s speed=0.121x    frame=  339 fps=7.5 q=36.0 size=    5429kB time=00:00:05.52 bitrate=8054.8kbits/s speed=0.122x    frame=  341 fps=7.4 q=36.0 size=    5429kB time=00:00:05.56 bitrate=7996.8kbits/s speed=0.121x    frame=  348 fps=7.4 q=36.0 size=    5429kB time=00:00:05.70 bitrate=7800.5kbits/s speed=0.122x    frame=  354 fps=7.5 q=35.0 size=    5429kB time=00:00:05.82 bitrate=7639.6kbits/s speed=0.123x    frame=  360 fps=7.5 q=35.0 size=    5429kB time=00:00:05.94 bitrate=7485.3kbits/s speed=0.123x    frame=  365 fps=7.5 q=35.0 size=    5429kB time=00:00:06.04 bitrate=7361.4kbits/s speed=0.124x    frame=  368 fps=7.5 q=35.0 size=    5429kB time=00:00:06.10 bitrate=7289.0kbits/s speed=0.124x    frame=  374 fps=7.5 q=35.0 size=    5429kB time=00:00:06.22 bitrate=7148.4kbits/s speed=0.124x    frame=  376 fps=7.4 q=35.0 size=    5429kB time=00:00:06.26 bitrate=7102.8kbits/s speed=0.124x    frame=  381 fps=7.5 q=35.0 size=    5429kB time=00:00:06.36 bitrate=6991.1kbits/s speed=0.125x    frame=  385 fps=7.5 q=35.0 size=    5429kB time=00:00:06.44 bitrate=6904.3kbits/s speed=0.125x    frame=  388 fps=7.4 q=35.0 size=    5429kB time=00:00:06.50 bitrate=6840.5kbits/s speed=0.125x    frame=  393 fps=7.5 q=35.0 size=    5429kB time=00:00:06.60 bitrate=6736.9kbits/s speed=0.125x    frame=  396 fps=7.4 q=35.0 size=    5429kB time=00:00:06.66 bitrate=6676.2kbits/s speed=0.125x    frame=  402 fps=7.5 q=35.0 size=    5429kB time=00:00:06.78 bitrate=6558.1kbits/s speed=0.126x    frame=  404 fps=7.4 q=35.0 size=    5429kB time=00:00:06.82 bitrate=6519.6kbits/s speed=0.125x    frame=  409 fps=7.4 q=35.0 size=    5429kB time=00:00:06.92 bitrate=6425.4kbits/s speed=0.126x    frame=  412 fps=7.4 q=35.0 size=    5429kB time=00:00:06.98 bitrate=6370.2kbits/s speed=0.126x    frame=  416 fps=7.4 q=35.0 size=    5429kB time=00:00:07.06 bitrate=6298.0kbits/s speed=0.126x    frame=  420 fps=7.4 q=35.0 size=    5429kB time=00:00:07.14 bitrate=6227.5kbits/s speed=0.126x    frame=  424 fps=7.4 q=35.0 size=    5429kB time=00:00:07.22 bitrate=6158.5kbits/s speed=0.126x    frame=  428 fps=7.4 q=35.0 size=    5429kB time=00:00:07.30 bitrate=6091.0kbits/s speed=0.126x    frame=  432 fps=7.4 q=35.0 size=    5429kB time=00:00:07.38 bitrate=6025.0kbits/s speed=0.126x    frame=  437 fps=7.4 q=35.0 size=    5429kB time=00:00:07.48 bitrate=5944.4kbits/s speed=0.127x    frame=  440 fps=7.4 q=35.0 size=    5429kB time=00:00:07.54 bitrate=5897.1kbits/s speed=0.127x    frame=  446 fps=7.4 q=35.0 size=    5429kB time=00:00:07.66 bitrate=5804.8kbits/s speed=0.128x    frame=  448 fps=7.4 q=35.0 size=    5429kB time=00:00:07.70 bitrate=5774.6kbits/s speed=0.127x    frame=  454 fps=7.4 q=35.0 size=    5429kB time=00:00:07.82 bitrate=5686.0kbits/s speed=0.128x    frame=  456 fps=7.4 q=35.0 size=    5429kB time=00:00:07.86 bitrate=5657.1kbits/s speed=0.127x    frame=  462 fps=7.4 q=35.0 size=    5429kB time=00:00:07.98 bitrate=5572.0kbits/s speed=0.128x    frame=  464 fps=7.4 q=35.0 size=    5429kB time=00:00:08.02 bitrate=5544.2kbits/s speed=0.127x    frame=  468 fps=7.4 q=35.0 size=    5429kB time=00:00:08.10 bitrate=5489.5kbits/s speed=0.128x    frame=  472 fps=7.4 q=35.0 size=    5429kB time=00:00:08.18 bitrate=5435.8kbits/s speed=0.128x    frame=  476 fps=7.4 q=35.0 size=    5429kB time=00:00:08.26 bitrate=5383.2kbits/s speed=0.128x    frame=  480 fps=7.4 q=35.0 size=    5429kB time=00:00:08.34 bitrate=5331.5kbits/s speed=0.128x    frame=  484 fps=7.4 q=35.0 size=    5429kB time=00:00:08.42 bitrate=5280.9kbits/s speed=0.128x    frame=  489 fps=7.4 q=35.0 size=    5429kB time=00:00:08.52 bitrate=5218.9kbits/s speed=0.128x    frame=  492 fps=7.3 q=35.0 size=    5429kB time=00:00:08.58 bitrate=5182.4kbits/s speed=0.128x    frame=  497 fps=7.4 q=34.0 size=    5429kB time=00:00:08.68 bitrate=5122.7kbits/s speed=0.128x    frame=  500 fps=7.3 q=34.0 size=    5429kB time=00:00:08.74 bitrate=5087.6kbits/s speed=0.128x    frame=  500 fps=6.5 q=-1.0 Lsize=   11176kB time=00:00:09.94 bitrate=9209.9kbits/s speed=0.129x    
video:11172kB audio:0kB subtitle:0kB other streams:0kB global headers:0kB muxing overhead: 0.040175%
bench: utime=286.068s
bench: maxrss=2229224kB
[libx264 @ 0x3884120] frame I:3     Avg QP:30.61  size:378089
[libx264 @ 0x3884120] frame P:183   Avg QP:32.90  size: 35633
[libx264 @ 0x3884120] frame B:314   Avg QP:34.96  size: 12052
[libx264 @ 0x3884120] consecutive B-frames: 16.0%  0.8%  0.0% 83.2%
[libx264 @ 0x3884120] mb I  I16..4: 27.3% 60.2% 12.5%
[libx264 @ 0x3884120] mb P  I16..4:  0.0%  0.0%  0.0%  P16..4: 32.8%  2.7%  4.8%  0.0%  0.0%    skip:59.7%
[libx264 @ 0x3884120] mb B  I16..4:  0.0%  0.0%  0.0%  B16..8: 44.5%  0.1%  0.0%  direct: 0.0%  skip:55.3%  L0:47.5% L1:52.4% BI: 0.0%
[libx264 @ 0x3884120] final ratefactor: 27.05
[libx264 @ 0x3884120] 8x8 transform intra:60.3% inter:68.5%
[libx264 @ 0x3884120] direct mvs  spatial:98.7% temporal:1.3%
[libx264 @ 0x3884120] coded y,uvDC,uvAC intra: 80.6% 68.5% 45.7% inter: 3.0% 4.2% 0.0%
[libx264 @ 0x3884120] i16 v,h,dc,p:  9% 24%  6% 61%
[libx264 @ 0x3884120] i8 v,h,dc,ddl,ddr,vr,hd,vl,hu:  5%  7%  1% 14% 20% 13% 19%  9% 12%
[libx264 @ 0x3884120] i4 v,h,dc,ddl,ddr,vr,hd,vl,hu:  2%  3%  1% 19% 20% 13% 18%  9% 14%
[libx264 @ 0x3884120] i8c dc,h,v,p: 41% 33% 16% 11%
[libx264 @ 0x3884120] Weighted P-Frames: Y:0.5% UV:0.0%
[libx264 @ 0x3884120] ref P L0: 61.4% 21.5% 11.1%  2.5%  2.5%  1.0%
[libx264 @ 0x3884120] ref B L0: 81.4% 12.9%  4.9%  0.8%
[libx264 @ 0x3884120] ref B L1: 94.2%  5.8%
[libx264 @ 0x3884120] kb/s:9151.37
